<?xml version="1.0" encoding="utf-8"?>
<!-- Generator: Adobe Illustrator 15.1.0, SVG Export Plug-In . SVG Version: 6.00 Build 0)  -->
<!DOCTYPE svg PUBLIC "-//W3C//DTD SVG 1.1//EN" "http://www.w3.org/Graphics/SVG/1.1/DTD/svg11.dtd">
<svg version="1.1" id="Layer_1" xmlns="http://www.w3.org/2000/svg" xmlns:xlink="http://www.w3.org/1999/xlink" x="0px" y="0px"
	 width="100px" height="20px" viewBox="0 0 100 20" enable-background="new 0 0 100 20" xml:space="preserve">
<polygon fill="#EFA432" points="9.588,0.411 12.552,6.724 19.178,7.736 14.383,12.651 15.514,19.59 9.588,16.313 3.662,19.59 
	4.793,12.651 -0.001,7.736 6.625,6.724 "/>
<polygon fill="#EFA432" points="29.792,0.411 32.755,6.723 39.382,7.736 34.588,12.65 35.719,19.59 29.792,16.313 23.867,19.59 
	24.998,12.65 20.204,7.736 26.83,6.723 "/>
<polygon fill="#EFA432" points="49.997,0.411 52.959,6.723 59.585,7.736 54.791,12.651 55.923,19.59 49.997,16.313 44.071,19.59 
	45.203,12.651 40.408,7.736 47.034,6.723 "/>
<polygon fill="#EFA432" points="70.203,0.411 73.165,6.723 79.791,7.736 74.997,12.651 76.129,19.59 70.203,16.313 64.276,19.59 
	65.408,12.651 60.612,7.736 67.239,6.723 "/>
<polygon fill="#EFA432" points="90.408,0.411 93.369,6.723 99.996,7.736 95.202,12.651 96.333,19.59 90.408,16.313 84.481,19.59 
	85.612,12.651 80.817,7.736 87.444,6.723 "/>
</svg>
